<?xml version="1.0" encoding="utf-8"?>
<!DOCTYPE svg PUBLIC "-//W3C//DTD SVG 1.1//EN" "http://www.w3.org/Graphics/SVG/1.1/DTD/svg11.dtd">
<svg version="1.1" id="Layer_1" xmlns="http://www.w3.org/2000/svg" xmlns:xlink="http://www.w3.org/1999/xlink" x="0px" y="0px"
width="62px" height="62px" viewBox="0 0 62 62" enable-background="new 0 0 62 62" xml:space="preserve">
<g>
<path fill="#DDDDDD" d="M31.477,36.486l-0.743,0.743l2.823,2.823c0.382,0.382,0.566,0.831,0.563,1.372
c-0.003,0.542-0.192,0.988-0.578,1.365l-0.005,0.004l-0.004,0.004c-0.333,0.341-0.752,0.508-1.282,0.511
c-0.396,0.002-0.905-0.295-1.47-0.86l-0.371-0.372l-0.372,0.372c-0.574,0.574-1.088,0.878-1.487,0.881
c-0.497,0.003-0.919-0.176-1.29-0.547c-0.382-0.382-0.566-0.831-0.563-1.372c0.003-0.544,0.193-0.997,0.583-1.386l5.478-5.478
l-0.743-0.743l-5.478,5.478c-0.586,0.586-0.886,1.301-0.89,2.123c-0.005,0.825,0.288,1.539,0.871,2.121
c0.572,0.571,1.257,0.859,2.039,0.855c0.591-0.003,1.2-0.28,1.853-0.842c0.648,0.556,1.255,0.825,1.847,0.822
c0.813-0.005,1.493-0.282,2.024-0.824c0.586-0.575,0.886-1.284,0.89-2.107c0.005-0.825-0.289-1.539-0.871-2.122L31.477,36.486z"/>
<path fill="#DDDDDD" d="M26.706,33.804l-2.824,2.824c-0.389,0.389-0.842,0.579-1.386,0.582c-0.542,0.003-0.99-0.181-1.372-0.563
c-0.371-0.371-0.55-0.793-0.547-1.29c0.002-0.399,0.307-0.913,0.88-1.487l0.372-0.372l-0.372-0.372
c-0.565-0.565-0.862-1.073-0.86-1.47c0.003-0.53,0.17-0.949,0.511-1.282l0.005-0.004l0.004-0.005
c0.377-0.386,0.824-0.575,1.366-0.578c0.541-0.003,0.99,0.181,1.372,0.563l5.477,5.477l0.743-0.743l-5.477-5.477
c-0.583-0.582-1.296-0.875-2.121-0.871c-0.823,0.005-1.532,0.304-2.107,0.89c-0.542,0.531-0.819,1.212-0.824,2.024
c-0.003,0.591,0.266,1.199,0.822,1.847c-0.563,0.653-0.839,1.263-0.843,1.853c-0.004,0.781,0.284,1.467,0.855,2.039
c0.583,0.583,1.296,0.876,2.121,0.871c0.823-0.005,1.537-0.304,2.124-0.891l2.824-2.824L26.706,33.804z"/>
<path fill="#DDDDDD" d="M29.332,30.52l0.743-0.743l-2.823-2.823c-0.382-0.382-0.566-0.831-0.563-1.372
c0.003-0.541,0.192-0.988,0.578-1.366l0.005-0.004l0.004-0.005c0.333-0.341,0.752-0.508,1.282-0.511
c0.397-0.002,0.905,0.295,1.47,0.86l0.372,0.372l0.372-0.372c0.574-0.574,1.088-0.878,1.487-0.88
c0.497-0.003,0.919,0.176,1.29,0.547c0.382,0.382,0.566,0.831,0.563,1.373c-0.003,0.544-0.194,0.997-0.582,1.386l-5.478,5.478
l0.743,0.743l5.478-5.478c0.587-0.587,0.886-1.301,0.891-2.124c0.005-0.825-0.288-1.539-0.871-2.121
c-0.572-0.572-1.257-0.859-2.039-0.855c-0.591,0.003-1.2,0.28-1.853,0.842c-0.648-0.556-1.255-0.825-1.847-0.822
c-0.812,0.004-1.493,0.282-2.024,0.824c-0.586,0.575-0.886,1.284-0.89,2.107c-0.005,0.825,0.288,1.539,0.871,2.121L29.332,30.52z"
/>
<path fill="#DDDDDD" d="M30.527,17.966c-8.524,0-15.435,6.91-15.435,15.434s6.91,15.434,15.435,15.434
c8.524,0,15.434-6.91,15.434-15.434S39.052,17.966,30.527,17.966z M40.698,43.571c-5.618,5.618-14.76,5.618-20.378,0
c-5.618-5.618-5.618-14.76,0-20.379c5.618-5.618,14.76-5.618,20.378,0C46.316,28.811,46.316,37.953,40.698,43.571z"/>
<path fill="#DDDDDD" d="M41.283,31.655c0.004-0.781-0.283-1.467-0.855-2.039c-0.583-0.583-1.296-0.875-2.122-0.871
c-0.823,0.005-1.537,0.304-2.124,0.89l-2.824,2.824l0.743,0.743l2.824-2.824c0.389-0.389,0.843-0.58,1.386-0.583
c0.542-0.003,0.991,0.181,1.372,0.563c0.371,0.371,0.55,0.793,0.547,1.29c-0.002,0.399-0.307,0.913-0.88,1.487l-0.372,0.372
l0.372,0.372c0.565,0.565,0.862,1.073,0.86,1.47c-0.003,0.53-0.17,0.95-0.511,1.282l-0.004,0.004l-0.004,0.005
c-0.377,0.386-0.824,0.575-1.365,0.578c-0.542,0.003-0.991-0.181-1.373-0.563l-5.477-5.477l-0.743,0.743l5.477,5.477
c0.583,0.583,1.296,0.876,2.121,0.871c0.823-0.005,1.532-0.304,2.107-0.89c0.542-0.531,0.82-1.212,0.824-2.024
c0.003-0.591-0.267-1.199-0.822-1.847C41.004,32.855,41.28,32.246,41.283,31.655z"/>
</g>
</svg>
